# xmcd CD database file
#
# Track frame offsets:
#	151
#	15792
#	30451
#	45779
#	59787
#	78747
#	96597
#	117552
#	138458
#	154918
#	171073
#	187430
#
# Disc length: 2680 seconds
#
# Revision: 67
# Processed by: cddbd v1.5.2PL0 Copyright (c) Steve Scherf et al.
# Submitted via: CDex 1.99.1
#
DISCID=a40a760c
DTITLE=Katie Melua - Piece By Piece
DYEAR=2005
DGENRE=Pop
TTITLE0=Shy Boy
TTITLE1=Nine Million Bicycles
TTITLE2=Piece By Piece
TTITLE3=Halfway Up The Hindu Kush
TTITLE4=Blues In The Night
TTITLE5=Spider's Web
TTITLE6=Blue Shoes
TTITLE7=On The Road Again
TTITLE8=Thankyou Stars
TTITLE9=Just Like Heaven
TTITLE10=I Cried For You
TTITLE11=I Do Believe In Love
EXTD=YEAR: 2005
EXTT0=
EXTT1=
EXTT2=
EXTT3=
EXTT4=
EXTT5=
EXTT6=
EXTT7=
EXTT8=
EXTT9=
EXTT10=
EXTT11=
PLAYORDER=
